<svg width="57" height="47" viewBox="0 0 57 47" fill="none" xmlns="http://www.w3.org/2000/svg">
<g clip-path="url(#clip0_166_54)">
<path d="M21.7561 36.6846C21.4697 36.4133 21.4049 35.916 21.5481 35.5265C21.7186 35.0639 22.0971 34.7196 22.4653 34.3962C27.9614 29.5724 33.8223 25.1833 39.9833 21.2846C41.7699 20.1543 43.5974 19.0553 45.5817 18.3527C48.4082 17.3476 51.5824 17.1946 54.0884 19.0692C56.1341 20.5994 57.2558 23.1696 56.9524 25.7467C56.6523 28.2925 54.9408 30.6157 52.6291 31.6208C49.8402 32.8346 46.6591 32.1495 43.6417 31.8608C36.6079 31.1826 29.3798 32.8346 23.3006 36.5038C22.8847 36.7542 22.3835 37.022 21.9436 36.8168C21.8721 36.782 21.8107 36.7403 21.7561 36.6881V36.6846Z" fill="#A68160" fill-opacity="0.75"/>
<path d="M20.3922 31.8991C20.5627 32.073 20.8627 32.1077 21.098 32.0138C21.3775 31.8991 21.5787 31.6556 21.7696 31.4156C24.6097 27.8682 27.1771 24.0947 29.4444 20.1404C30.1024 18.9927 30.74 17.8241 31.1355 16.5582C31.6981 14.7566 31.7424 12.7499 30.5627 11.1953C29.6012 9.92586 28.0227 9.2581 26.4611 9.4946C24.92 9.72414 23.5392 10.844 22.9664 12.3186C22.2742 14.0993 22.7413 16.0956 22.9664 18.0015C23.4914 22.4323 22.6084 27.0266 20.4774 30.9253C20.3308 31.1931 20.1774 31.513 20.3104 31.7878C20.3308 31.833 20.3581 31.8712 20.3922 31.906V31.8991Z" fill="#A68160" fill-opacity="0.75"/>
<path d="M24.8927 39.06C24.8858 38.8896 25.0086 38.7192 25.162 38.6427C25.3461 38.5522 25.5643 38.5592 25.7689 38.5731C28.8443 38.754 31.906 39.1748 34.9132 39.8391C35.786 40.0303 36.6623 40.246 37.4737 40.6285C38.6295 41.1711 39.6422 42.0788 39.8672 43.4074C40.0513 44.4924 39.649 45.6158 38.8102 46.3114C37.9817 47 36.7884 47.1948 35.7894 46.8052C34.5859 46.3357 33.8119 45.1706 32.9732 44.1725C31.0195 41.8493 28.3328 40.1764 25.4143 39.4704C25.2132 39.4217 24.9847 39.3521 24.9097 39.1574C24.8961 39.1261 24.8927 39.0948 24.8893 39.06H24.8927Z" fill="#A68160" fill-opacity="0.75"/>
</g>
<defs>
<clipPath id="clip0_166_54">
<rect width="57" height="47" fill="white" transform="matrix(-1 0 0 1 57 0)"/>
</clipPath>
</defs>
</svg>
