<svg width="119" height="96" viewBox="0 0 119 96" fill="none" xmlns="http://www.w3.org/2000/svg">
<g clip-path="url(#clip0_166_50)">
<path d="M73.5794 74.9303C74.1774 74.3762 74.3126 73.3604 74.0136 72.5648C73.6577 71.62 72.8676 70.9167 72.0989 70.256C60.6245 60.4031 48.3886 51.4382 35.5262 43.4749C31.7963 41.1662 27.981 38.9214 23.8383 37.4865C17.9374 35.4335 11.3105 35.1209 6.07872 38.9498C1.80787 42.0755 -0.533975 47.3251 0.099534 52.589C0.725925 57.789 4.2992 62.5343 9.12525 64.5872C14.9478 67.0664 21.589 65.667 27.8885 65.0774C42.5731 63.6922 57.6634 67.0665 70.3549 74.5609C71.2234 75.0724 72.2697 75.6194 73.188 75.2002C73.3374 75.1292 73.4656 75.044 73.5794 74.9374V74.9303Z" fill="#A68160" fill-opacity="0.75"/>
<path d="M76.4269 65.1555C76.071 65.5107 75.4446 65.5818 74.9535 65.39C74.3698 65.1555 73.9498 64.6583 73.5512 64.1681C67.6218 56.9223 62.2619 49.2147 57.5284 41.1378C56.1546 38.7935 54.8235 36.4067 53.9978 33.8209C52.8234 30.1412 52.7308 26.0423 55.1937 22.867C57.201 20.2741 60.4966 18.9102 63.7567 19.3932C66.9741 19.8621 69.8569 22.1495 71.0527 25.1615C72.4977 28.7986 71.5225 32.8761 71.0527 36.769C69.9566 45.8191 71.8001 55.2032 76.2489 63.1665C76.555 63.7135 76.8753 64.367 76.5977 64.9282C76.555 65.0206 76.4981 65.0987 76.4269 65.1697V65.1555Z" fill="#A68160" fill-opacity="0.75"/>
<path d="M67.0309 79.7822C67.0451 79.4341 66.7888 79.086 66.4685 78.9297C66.0842 78.745 65.6286 78.7592 65.2015 78.7876C58.781 79.157 52.389 80.0166 46.1108 81.3734C44.2886 81.7641 42.4593 82.2045 40.7652 82.9859C38.3521 84.0941 36.2381 85.9482 35.7683 88.6618C35.3839 90.8782 36.2238 93.1727 37.9749 94.5935C39.7046 96 42.1959 96.3978 44.2815 95.6022C46.7942 94.6432 48.41 92.2634 50.161 90.2247C54.2397 85.4794 59.8487 82.0625 65.9418 80.6204C66.3618 80.5209 66.8387 80.3789 66.9953 79.9811C67.0237 79.9171 67.0309 79.8532 67.038 79.7822H67.0309Z" fill="#A68160" fill-opacity="0.75"/>
</g>
<defs>
<clipPath id="clip0_166_50">
<rect width="119" height="96" fill="white"/>
</clipPath>
</defs>
</svg>
